<svg width="24" height="24" viewBox="0 0 24 24" fill="red" xmlns="http://www.w3.org/2000/svg">
<path fill-rule="evenodd" clip-rule="evenodd" d="M3 4C3 2.34315 4.34315 1 6 1H18C19.6569 1 21 2.34315 21 4V22C21 22.3375 20.8298 22.6522 20.5473 22.8369C20.2649 23.0216 19.9084 23.0514 19.5992 22.9162L12 19.5915L4.40082 22.9162C4.09164 23.0514 3.73509 23.0216 3.45265 22.8369C3.17022 22.6522 3 22.3375 3 22V4ZM6 3C5.44772 3 5 3.44772 5 4V20.471L11.5992 17.5838C11.8547 17.4721 12.1453 17.4721 12.4008 17.5838L19 20.471V4C19 3.44772 18.5523 3 18 3H6Z" fill="#3747D6"/>
</svg>
