<svg xmlns="http://www.w3.org/2000/svg" xmlns:xlink="http://www.w3.org/1999/xlink" version="1.1" width="1000" height="1000" viewBox="0 0 1000 1000" xml:space="preserve">
<desc>Created with Fabric.js 3.5.0</desc>
<defs>
</defs>
<rect x="0" y="0" width="100%" height="100%" fill="#ffffff"/>
<g transform="matrix(10.101 0 0 10.101 517.4997 517.4995)" id="342039">
<path style="stroke: rgb(72,56,209); stroke-width: 36; stroke-dasharray: none; stroke-linecap: butt; stroke-dashoffset: 0; stroke-linejoin: miter; stroke-miterlimit: 10; is-custom-font: none; font-file-url: none; fill: rgb(255,255,255); fill-rule: nonzero; opacity: 1;" vector-effect="non-scaling-stroke" transform=" translate(-44.9995, -45)" d="M 74.113 0 H 15.886 c -1.105 0 -2 0.895 -2 2 v 86 c 0 0.759 0.43 1.453 1.109 1.791 c 0.282 0.14 0.587 0.209 0.89 0.209 c 0.428 0 0.854 -0.138 1.208 -0.405 l 25.669 -19.432 c 1.324 -1.002 3.152 -1.002 4.476 0 l 25.668 19.432 c 0.606 0.458 1.418 0.533 2.098 0.196 c 0.68 -0.338 1.109 -1.032 1.109 -1.791 V 2 C 76.113 0.895 75.218 0 74.113 0 z" stroke-linecap="round"/>
</g>
</svg>